<?xml version="1.0" encoding="UTF-8" standalone="no"?><!DOCTYPE svg PUBLIC "-//W3C//DTD SVG 1.1//EN" "http://www.w3.org/Graphics/SVG/1.1/DTD/svg11.dtd"><svg width="100%" height="100%" viewBox="0 0 2250 2250" version="1.1" xmlns="http://www.w3.org/2000/svg" xmlns:xlink="http://www.w3.org/1999/xlink" xml:space="preserve" xmlns:serif="http://www.serif.com/" style="fill-rule:evenodd;clip-rule:evenodd;stroke-linejoin:round;stroke-miterlimit:2;"><g><path d="M1702,1041.68l-1156.92,-0l-0,-1.012c-0,-399.906 201.056,-733.553 467.125,-807.454c14.878,-4.132 29.96,-7.452 45.221,-9.927l132.234,0c18.987,3.079 37.696,7.467 56.082,13.099c260.66,79.853 456.264,409.836 456.264,804.282l-0.001,1.012Z"/><path d="M1245.73,1018.69l-233.537,-0l0,-785.751c14.878,-4.016 29.96,-7.243 45.221,-9.648l132.234,0c18.987,2.992 37.696,7.257 56.082,12.731l-0,782.668Z" style="fill:#fff;"/><path d="M1702,987.102l35.381,188.161l-1222.46,-0l30.156,-188.161c-0,-0 160.54,24.129 197.798,29.729c5.098,0.767 10.245,1.153 15.401,1.157c74.331,0.059 660.416,0.518 737.029,0.578c5.491,0.004 10.974,-0.426 16.397,-1.286c37.34,-5.921 190.301,-30.178 190.301,-30.178Z" style="fill:#fff;"/><g><path d="M1125,2117.17l123.485,-163.877l-246.97,0l123.485,163.877Z"/><path d="M1248.49,1953.29l-246.97,0l61.743,-828.289l123.484,-0l61.743,828.289Z"/><path d="M1064.4,1125l-5.77,120.707l-18.96,206.906c0,0 -11.898,-47.866 -22.047,-88.698c-8.775,-35.3 -35.327,-63.467 -70.048,-74.306c-23.534,-7.348 -45.568,-14.226 -45.568,-14.226l162.393,-150.383Z"/><path d="M1186.24,1125l5.77,120.707l18.96,206.906c-0,0 11.897,-47.866 22.047,-88.698c8.774,-35.3 35.327,-63.467 70.048,-74.306c23.534,-7.348 45.567,-14.226 45.567,-14.226l-162.392,-150.383Z"/><ellipse cx="1337.38" cy="1157.66" rx="178.741" ry="61.409"/><ellipse cx="912.621" cy="1157.66" rx="178.741" ry="61.409"/><path d="M1770.63,1177.32l-24.373,115.096l-345.652,-73.196l24.373,-115.096l345.652,73.196Z"/><path d="M480.008,1177.32l24.374,115.096l345.651,-73.196l-24.373,-115.096l-345.652,73.196Z"/><path d="M503.615,1288.81c0,-0 0,-0 0,0.001c5.415,25.572 30.536,41.912 56.108,36.497c125.242,-26.522 461.33,-97.693 461.33,-97.693l-9.805,-46.303l-507.633,107.498Z"/><path d="M1747.25,1288.81c-0,-0 -0,-0 -0,0.001c-5.416,25.572 -30.536,41.912 -56.108,36.497c-125.242,-26.522 -461.33,-97.693 -461.33,-97.693l9.805,-46.303l507.633,107.498Z"/><path d="M1676.75,1245.65l0.115,41.877l-468.495,1.283l-0.114,-41.877l468.494,-1.283Z"/><path d="M1020.94,1245.65l0.115,41.877l-468.495,1.283l-0.115,-41.877l468.495,-1.283Z"/></g><g><rect x="545.07" y="1270.13" width="102.982" height="200.336"/><rect x="545.07" y="1270.13" width="102.982" height="200.336"/><rect x="1599.01" y="1270.13" width="102.982" height="200.336"/><path d="M636.829,1407.84c4.181,47.569 22.301,142.743 88.286,170.138c117.794,48.905 263.336,64.247 305.844,86.003c-63.878,43.022 -354.603,52.352 -409.822,-29.637c-55.218,-81.99 -48.187,-183.483 15.692,-226.504Z"/><path d="M1606.6,1407.84c-4.181,47.569 -22.302,142.743 -88.287,170.138c-117.794,48.905 -263.336,64.247 -305.844,86.003c63.879,43.022 354.603,52.352 409.822,-29.637c55.218,-81.99 48.187,-183.483 -15.691,-226.504Z"/><path d="M1702,1470.46l-0,89.568c-0,56.874 -46.106,102.98 -102.98,102.98c-0.001,-0 -0.002,-0 -0.002,-0l-0,-192.548l102.982,0Z"/><path d="M545.07,1470.46l-0,89.568c-0,56.874 46.105,102.98 102.979,102.98c0.001,-0 0.002,-0 0.002,-0l0,-192.548l-102.981,0Z"/><path d="M733.349,1645.69l303.191,22.877l-19.75,133.79c-0,0 -225.177,-50.308 -299.965,-84.658c-7.396,-3.397 -34.092,-23.985 -37.732,-26.629c-8.519,-6.188 -31.042,-13.898 -31.042,-31.042c0,-7.967 0,-14.338 0,-14.338l85.298,0Z"/><path d="M1515.66,1645.69l-303.191,22.877l19.751,133.79c-0,0 225.176,-50.308 299.964,-84.658c7.396,-3.397 34.092,-23.985 37.732,-26.629c8.519,-6.188 31.042,-13.898 31.042,-31.042c-0,-7.967 -0,-14.338 -0,-14.338l-85.298,0Z"/></g><g><ellipse cx="1125" cy="873.995" rx="30.887" ry="23.203"/><ellipse cx="1125" cy="574.001" rx="24.341" ry="19.792"/><ellipse cx="1125" cy="385.331" rx="12.293" ry="11.211"/></g></g></svg>